<svg clip-rule="evenodd" fill-rule="evenodd" stroke-linejoin="round" stroke-miterlimit="2" viewBox="0 0 510 510" xmlns="http://www.w3.org/2000/svg"><path d="m150.197 377.639-16.496-7.062c-16.59-7.109-26.169-23.699-24.051-41.599l.001-.01 2.867-23.981c.001-.008.002-.016.003-.025.606-4.939-.19-9.301-2.399-13.725 0 0-10.89-21.538-10.884-21.525-8.173-16.094-4.848-34.963 8.319-47.324l17.604-16.514.015-.014c3.628-3.385 5.834-7.225 6.952-12.032l.004-.017s5.531-23.537 5.527-23.52c4.087-17.558 18.764-29.873 36.776-30.882h.006l24.105-1.333c4.958-.272 9.133-1.775 13.063-4.738.006-.005.012-.009.018-.014l19.338-14.493.016-.012c14.467-10.787 33.571-10.787 48.038 0l.016.012 19.333 14.49c3.969 2.968 8.118 4.483 13.086 4.755l24.105 1.333h.006c18.012 1.009 32.689 13.324 36.772 30.865l5.531 23.537.004.017c1.118 4.807 3.324 8.647 6.952 12.032l.015.014 17.604 16.514c13.167 12.361 16.492 31.23 8.325 47.311 0 0-10.89 21.538-10.89 21.538-2.209 4.424-3.005 8.786-2.399 13.725.001.009.002.017.003.025l2.867 23.981.001.01c2.118 17.902-7.417 34.492-24.054 41.601l-16.493 7.06c9.679 20.798 36.329 78.063 36.329 78.063 1.826 3.855 1.323 7.999-1.203 11.209-2.506 3.335-6.352 4.861-10.509 4.109l-37.763-6.587s-19.262 33.076-19.284 33.112c-2.01 3.537-5.671 5.601-9.83 5.447-4.128-.153-7.545-2.366-9.379-6.188-.014-.028-.027-.056-.04-.085l-34.724-74.58-11.447-3.456c-.013-.004-.027-.008-.04-.012-4.699-1.446-9.127-1.446-13.826 0-.013.004-.027.008-.04.012l-11.447 3.456c-6.856 14.726-34.697 74.523-34.687 74.502-1.729 3.853-5.273 6.196-9.456 6.351-4.148.154-7.802-1.9-9.811-5.413l-19.268-33.146-37.8 6.588c-4.165.752-8.017-.782-10.487-4.085-2.55-3.257-3.045-7.392-1.223-11.234zm195.748 8.143c-.904.99-1.741 2.078-2.524 3.269l-13.193 20.172c-8.297 12.7-22.278 19.329-36.785 18.057 7.447 15.996 18.938 40.677 25.029 53.758l17.161-29.469c1.684-2.892 4.991-4.43 8.288-3.855l33.571 5.856zm-129.388 41.498c-14.507 1.272-28.488-5.356-36.783-18.054l-13.195-20.175c-.783-1.191-1.62-2.279-2.524-3.269l-31.548 67.79 33.614-5.858c3.299-.575 6.607.965 8.289 3.86l17.123 29.456zm52.893-295.638c-8.704-6.487-20.196-6.487-28.9 0 0 0-19.324 14.483-19.324 14.483-6.562 4.943-13.526 7.473-21.8 7.927l-24.097 1.332c-10.814.606-19.633 7.993-22.086 18.534l-.004.016s-5.531 23.536-5.531 23.536c-1.869 8.018-5.552 14.425-11.602 20.076l-17.598 16.508c-7.907 7.422-9.911 18.75-5.004 28.413l.007.013 10.9 21.558c.005.011.011.022.016.033 3.678 7.355 4.981 14.611 3.977 22.821l-2.865 23.968c-1.272 10.763 4.489 20.736 14.464 25.011 0 0 22.153 9.483 22.153 9.483 7.609 3.228 13.261 8.01 17.798 14.915l.009.014 13.203 20.189c5.941 9.094 16.735 12.996 27.132 9.876 0 0 23.109-6.977 23.109-6.977 7.88-2.42 15.306-2.42 23.186 0l23.109 6.977c10.397 3.12 21.191-.782 27.132-9.876l13.203-20.189.009-.014c4.537-6.905 10.189-11.687 17.798-14.915l22.156-9.484.005-.002c10.002-4.274 15.728-14.248 14.456-25.008 0 0-2.865-23.968-2.865-23.968-1.004-8.21.299-15.466 3.977-22.821.005-.011.011-.022.016-.033l10.9-21.558.007-.013c4.907-9.663 2.903-20.991-5.004-28.413 0 0-17.598-16.508-17.598-16.508-6.05-5.651-9.733-12.058-11.602-20.076l-5.531-23.536-.004-.016c-2.453-10.541-11.272-17.928-22.086-18.534l-24.093-1.332c-8.274-.454-15.186-2.976-21.795-7.92l-.006-.004zm-14.425 251.266c-62.689 0-113.831-51.142-113.831-113.831s51.142-113.831 113.831-113.831c62.636 0 113.781 51.141 113.781 113.831s-51.145 113.831-113.781 113.831zm0-16c53.83 0 97.781-43.954 97.781-97.831 0-53.876-43.951-97.831-97.781-97.831-53.877 0-97.831 43.954-97.831 97.831 0 53.878 43.954 97.831 97.831 97.831zm-11.997-98.781 51.67-52.21.015-.015c9.902-9.953 26.064-10.002 36.018-.099 9.95 9.898 10.012 26.002.114 36.003l-.004.004c-23.27 23.481-46.364 47.103-69.739 70.479-9.95 9.949-26.105 9.949-36.054 0l-38.746-38.781c-9.945-9.945-9.959-26.042-.014-36.039l.014-.015c9.95-9.949 26.104-9.949 36.054 0zm-5.628 17-26.358-26.359c-3.703-3.702-9.713-3.705-13.419-.007-3.701 3.729-3.714 9.726-.007 13.433l38.746 38.781c3.705 3.705 9.721 3.705 13.426 0 23.357-23.357 46.433-46.961 69.685-70.424 3.686-3.724 3.678-9.72-.026-13.405-3.7-3.681-9.706-3.66-13.388.037l-57.316 57.914c-1.497 1.513-3.536 2.367-5.665 2.373-2.129.005-4.172-.838-5.678-2.343zm.23-248.601 7.191-22.131c1.433-4.409 5.542-7.395 10.179-7.395s8.746 2.986 10.179 7.395l7.191 22.131h23.269c4.637 0 8.747 2.986 10.179 7.396 1.433 4.41-.136 9.24-3.888 11.966l-18.825 13.677 7.19 22.131c1.433 4.41-.136 9.241-3.888 11.966-3.751 2.726-8.83 2.726-12.581 0l-18.826-13.677-18.826 13.677c-3.751 2.726-8.83 2.726-12.581 0-3.752-2.725-5.321-7.556-3.888-11.966l7.19-22.131-18.825-13.677c-3.752-2.726-5.321-7.556-3.888-11.966 1.432-4.41 5.542-7.396 10.179-7.396zm-6.966 16 8.749 6.357c3.752 2.726 5.321 7.557 3.888 11.966l-3.342 10.286 8.75-6.357c3.751-2.725 8.831-2.725 12.582 0l8.75 6.357-3.342-10.286c-1.433-4.409.136-9.24 3.888-11.966l8.749-6.357h-10.815c-4.637 0-8.746-2.985-10.179-7.395l-3.342-10.286-3.342 10.286c-1.433 4.41-5.542 7.395-10.179 7.395zm-152.385 64.395-10.564-20.733c-2.105-4.132-1.31-9.149 1.968-12.427 3.279-3.279 8.296-4.074 12.427-1.969l20.734 10.565 16.454-16.455c3.279-3.278 8.296-4.073 12.427-1.968s6.437 6.631 5.712 11.211l-3.64 22.983 20.733 10.564c4.132 2.105 6.438 6.631 5.712 11.211-.725 4.579-4.317 8.171-8.896 8.896l-22.984 3.641-3.64 22.983c-.725 4.58-4.317 8.171-8.896 8.897-4.58.725-9.106-1.581-11.211-5.712l-10.564-20.734-22.983 3.64c-4.58.726-9.106-1.58-11.211-5.712-2.105-4.131-1.31-9.148 1.968-12.427zm6.388 16.24 10.682-1.692c4.58-.725 9.106 1.581 11.211 5.712l4.91 9.636 1.691-10.682c.726-4.579 4.318-8.171 8.897-8.896l10.682-1.692-9.636-4.91c-4.132-2.105-6.438-6.631-5.712-11.211l1.692-10.682-7.648 7.648c-3.278 3.278-8.295 4.073-12.427 1.968l-9.636-4.91 4.91 9.636c2.105 4.132 1.31 9.149-1.968 12.427zm291.536-25.033-3.64-22.983c-.725-4.58 1.581-9.106 5.712-11.211s9.148-1.31 12.427 1.968l16.454 16.455 20.734-10.565c4.131-2.105 9.148-1.31 12.427 1.969 3.278 3.278 4.073 8.295 1.968 12.427l-10.564 20.733 16.454 16.454c3.278 3.279 4.073 8.296 1.968 12.427-2.105 4.132-6.631 6.438-11.211 5.712l-22.983-3.64-10.564 20.734c-2.105 4.131-6.631 6.437-11.211 5.712-4.579-.726-8.171-4.317-8.896-8.897l-3.64-22.983-22.984-3.641c-4.579-.725-8.171-4.317-8.896-8.896-.726-4.58 1.58-9.106 5.712-11.211zm1.057 17.419 10.682 1.692c4.579.725 8.171 4.317 8.897 8.896l1.691 10.682 4.91-9.636c2.105-4.131 6.631-6.437 11.211-5.712l10.682 1.692-7.648-7.648c-3.278-3.278-4.073-8.295-1.968-12.427l4.91-9.636-9.636 4.91c-4.132 2.105-9.149 1.31-12.427-1.968l-7.648-7.648 1.692 10.682c.726 4.58-1.58 9.106-5.712 11.211z"/></svg>