<?xml version="1.0" encoding="UTF-8"?>
<!DOCTYPE svg PUBLIC "-//W3C//DTD SVG 1.1//EN" "http://www.w3.org/Graphics/SVG/1.1/DTD/svg11.dtd">
<!-- Creator: CorelDRAW 2019 (64-Bit) -->
<svg xmlns="http://www.w3.org/2000/svg" xml:space="preserve" width="2.2405in" height="2.60841in" version="1.1" style="shape-rendering:geometricPrecision; text-rendering:geometricPrecision; image-rendering:optimizeQuality; fill-rule:evenodd; clip-rule:evenodd"
viewBox="0 0 997.26 1161.02"
 xmlns:xlink="http://www.w3.org/1999/xlink"
 xmlns:xodm="http://www.corel.com/coreldraw/odm/2003">
 <defs>
  <style type="text/css">
   <![CDATA[
    .fil0 {fill:#373435;fill-rule:nonzero}
   ]]>
  </style>
 </defs>
 <g id="Layer_x0020_1">
  <metadata id="CorelCorpID_0Corel-Layer"/>
  <path class="fil0" d="M0.08 605.85l0.73 -520.95c0,-13.82 9.65,-25.38 22.57,-28.32 158.27,-36.63 316.82,-56.03 475.6,-56.57 158.68,-0.55 317.34,17.79 475.95,56.64 13.31,3.22 22.24,15.13 22.23,28.25l0.1 0 0 518.71c0,1.83 -0.17,3.63 -0.5,5.37 -12.66,121.41 -65.93,229.11 -145,319.5 -87.08,99.53 -205.42,177.98 -334.88,230.4 -7.68,3.11 -15.9,2.71 -22.9,-0.45 -82.66,-29.9 -159.8,-72.24 -227.49,-124 -3.28,-1.66 -6.27,-3.94 -8.75,-6.79 -34.59,-27.19 -66.61,-56.88 -95.51,-88.63 -85.67,-94.13 -144.28,-206.6 -161.92,-326.79 -0.31,-2.16 -0.39,-4.3 -0.23,-6.39zm179.04 -232.11c-11.01,-11.7 -10.44,-30.12 1.26,-41.12 11.7,-11.01 30.12,-10.44 41.12,1.26l63.33 67.17 177.16 -187.67c11.01,-11.7 29.42,-12.26 41.13,-1.26 11.7,11.01 12.26,29.42 1.26,41.13l-199.62 211.39c-11.7,11.01 -30.12,10.44 -41.13,-1.26l-84.5 -89.63zm759.4 -70.7l0.41 -0.75 0 -194.47c-25.1,-5.84 -50.21,-11.15 -75.31,-15.93 -82.36,165.43 -175.93,314.42 -290.27,443.66 -112.26,126.88 -244.31,234.59 -405.06,319.98 11.61,15.19 23.96,29.98 37.01,44.31 23.95,26.32 50.22,51.11 78.43,74.09 143.51,-71.74 260.47,-153.23 363.3,-257.12 107.24,-108.33 199.73,-241.51 291.49,-413.78zm0.41 118.7c-78.32,134.38 -159.19,243.69 -250.67,336.1 -101.31,102.35 -215.17,183.65 -352.46,254.98 51.99,35.51 109.07,65.25 169.43,87.86 117.54,-49.14 224.28,-120.74 302.79,-210.48 71.48,-81.72 119.59,-178.6 130.91,-287.23l0 -181.23zm-804.04 385.64c157.15,-82.51 285.82,-187 394.94,-310.33 107.18,-121.15 195.76,-260.69 274.04,-415.58 -101.65,-16.07 -203.29,-23.71 -304.89,-23.36 -146.45,0.5 -293.17,17.65 -440.11,50.07l-0.7 497.17c10.67,71.02 37.43,139.28 76.71,202.03z"/>
 </g>
</svg>
